<?xml version="1.0" standalone="no"?>
<!DOCTYPE svg PUBLIC "-//W3C//DTD SVG 20010904//EN"
 "http://www.w3.org/TR/2001/REC-SVG-20010904/DTD/svg10.dtd">
<svg version="1.0" xmlns="http://www.w3.org/2000/svg"
 width="500.000000pt" height="500.000000pt" viewBox="0 0 500.000000 500.000000"
 preserveAspectRatio="xMidYMid meet">

<g transform="translate(0.000000,500.000000) scale(0.100000,-0.100000)"
fill="#000000" stroke="none">
<path d="M1711 2717 c-86 -44 -93 -200 -10 -242 49 -26 97 -19 135 19 32 32
34 39 34 98 0 71 -14 99 -60 123 -35 18 -67 19 -99 2z"/>
<path d="M2439 2707 c-69 -46 -76 -152 -14 -214 27 -27 41 -33 75 -33 34 0 48
6 75 33 41 41 52 91 34 149 -16 48 -65 88 -109 88 -15 0 -42 -10 -61 -23z"/>
<path d="M3183 2711 c-43 -27 -53 -49 -53 -121 0 -57 3 -65 34 -96 98 -98 239
24 182 159 -29 69 -103 96 -163 58z"/>
<path d="M3933 2716 c-42 -19 -63 -62 -63 -130 0 -72 33 -114 96 -123 86 -11
141 52 131 150 -8 87 -88 137 -164 103z"/>
<path d="M1673 2409 c-24 -6 -55 -22 -69 -37 -24 -25 -184 -380 -184 -409 0
-20 74 -16 99 5 17 14 60 103 102 211 17 43 18 16 4 -79 -17 -105 -55 -510
-55 -578 l0 -43 42 3 c64 5 73 25 108 242 29 178 35 206 43 195 2 -2 16 -80
31 -174 42 -262 44 -265 120 -265 28 0 36 4 36 19 0 53 -42 491 -55 584 -9 60
-15 111 -12 113 2 2 23 -42 47 -98 54 -130 70 -148 127 -148 24 0 43 4 43 9 0
19 -161 385 -177 404 -10 10 -31 26 -46 34 -36 18 -149 25 -204 12z"/>
<path d="M2415 2409 c-42 -10 -101 -59 -111 -93 -4 -12 -38 -94 -75 -183 -38
-90 -69 -167 -69 -173 0 -15 73 -12 96 5 12 8 43 64 69 125 26 61 50 109 52
107 2 -2 -4 -51 -12 -108 -16 -101 -54 -511 -55 -576 0 -32 2 -33 40 -33 67 0
72 12 110 238 18 111 36 202 40 202 4 0 22 -91 40 -202 38 -226 43 -238 110
-238 38 0 40 1 40 33 -1 65 -39 475 -55 576 -8 57 -14 106 -12 108 2 2 26 -46
52 -107 26 -61 57 -117 69 -125 23 -17 96 -20 96 -5 0 6 -31 85 -70 176 -38
91 -70 169 -70 174 0 6 -16 28 -36 49 -50 56 -144 74 -249 50z"/>
<path d="M3165 2411 c-39 -10 -66 -25 -88 -48 -16 -19 -177 -385 -177 -404 0
-5 19 -9 43 -9 57 0 73 18 127 148 24 56 45 100 47 98 3 -2 -3 -53 -12 -113
-13 -93 -55 -531 -55 -584 0 -15 8 -19 36 -19 76 0 78 3 120 265 15 94 29 172
31 174 8 10 14 -16 43 -194 35 -218 44 -238 108 -243 l42 -3 0 43 c0 68 -38
473 -55 578 -14 95 -13 122 4 79 42 -108 85 -197 102 -211 25 -21 99 -25 99
-5 0 28 -160 384 -184 409 -39 40 -149 59 -231 39z"/>
<path d="M3905 2411 c-39 -10 -66 -25 -87 -48 -21 -23 -178 -394 -172 -405 3
-4 22 -8 43 -8 51 0 70 23 122 148 24 57 45 99 47 93 2 -6 -4 -58 -12 -117
-12 -81 -56 -539 -56 -586 0 -11 68 -10 90 2 25 13 34 48 65 240 14 91 29 174
34 184 5 13 19 -50 41 -183 38 -230 47 -251 109 -251 21 0 40 2 42 5 7 6 -37
501 -54 613 -7 50 -11 92 -7 92 3 0 26 -48 50 -106 25 -58 54 -112 65 -120 26
-19 95 -19 95 0 0 7 -37 100 -82 206 -97 229 -106 239 -230 245 -40 2 -86 1
-103 -4z"/>
</g>
</svg>
