<?xml version="1.0" standalone="no"?>
<!DOCTYPE svg PUBLIC "-//W3C//DTD SVG 20010904//EN"
 "http://www.w3.org/TR/2001/REC-SVG-20010904/DTD/svg10.dtd">
<svg version="1.0" xmlns="http://www.w3.org/2000/svg"
 width="500.000000pt" height="500.000000pt" viewBox="0 0 500.000000 500.000000"
 preserveAspectRatio="xMidYMid meet">

<g transform="translate(0.000000,500.000000) scale(0.100000,-0.100000)"
fill="#000000" stroke="none">
<path d="M585 4060 c-44 -22 -80 -68 -95 -121 -6 -19 -10 -139 -10 -266 l0
-233 2021 0 2020 0 -3 258 -3 259 -27 40 c-16 24 -44 49 -70 62 l-44 21 -1875
0 c-1852 0 -1874 0 -1914 -20z m220 -256 c53 -57 15 -148 -60 -148 -30 0 -44
7 -67 33 -24 27 -29 39 -24 64 15 76 101 105 151 51z m280 1 c57 -56 21 -145
-57 -145 -79 0 -114 78 -62 139 33 40 83 43 119 6z"/>
<path d="M2130 2540 c0 -226 4 -410 8 -408 24 9 702 404 702 408 0 4 -678 399
-702 408 -4 2 -8 -182 -8 -408z"/>
<path d="M1036 1784 c-9 -8 -16 -29 -16 -45 l0 -29 -109 0 c-116 0 -130 -6
-116 -51 6 -17 18 -19 116 -19 l109 0 0 -44 c0 -47 19 -76 49 -76 29 0 41 22
41 72 l0 48 1508 2 1507 3 0 30 0 30 -1507 3 -1508 2 0 33 c0 53 -40 76 -74
41z"/>
</g>
</svg>
